<svg xmlns="http://www.w3.org/2000/svg" xmlns:xlink="http://www.w3.org/1999/xlink" width="1600" zoomAndPan="magnify" viewBox="0 0 1200 809.999993" height="1080" preserveAspectRatio="xMidYMid meet" version="1.2"><defs><clipPath id="4ec7cb3690"><path d="M 489.046875 12.027344 L 808.546875 12.027344 L 808.546875 809.222656 L 489.046875 809.222656 Z M 489.046875 12.027344 "/></clipPath></defs><g id="45f87442a3"><g clip-rule="nonzero" clip-path="url(#4ec7cb3690)"><path style=" stroke:none;fill-rule:nonzero;fill:#87ceeb;fill-opacity:1;" d="M 593.019531 809.109375 C 591.714844 810.695312 581.179688 795.878906 588.8125 769.621094 C 592.316406 756.898438 599.203125 742.210938 610.875 727.4375 C 622.742188 712.351562 640.085938 699.75 659.191406 687.742188 C 678.367188 675.722656 699.9375 664.285156 721.40625 650.695312 C 742.445312 637.125 764.875 620.910156 775.679688 598.613281 C 786.484375 577.046875 781.203125 548.644531 767.171875 522.628906 C 753.230469 496.210938 732.625 471.171875 710.984375 445.257812 C 629.804688 335.585938 552.414062 239.875 516.738281 154.871094 C 479.902344 70.480469 489.410156 10.898438 492.398438 12.042969 C 497.25 11.585938 495.359375 68.308594 535.109375 146.363281 C 572.824219 224.351562 653.34375 319.335938 732.984375 426.945312 C 754.636719 452.976562 776.449219 479.375 792.097656 509.78125 C 807.703125 539.246094 816.148438 578.230469 799.296875 610.34375 C 782.902344 641.035156 756.332031 657.269531 733.746094 670.972656 C 710.519531 684.398438 688.519531 694.714844 669.421875 705.207031 C 650.378906 715.667969 634.046875 726.035156 622.949219 737.945312 C 611.625 749.953125 603.9375 762.542969 599.34375 773.25 C 589.582031 795.101562 595.050781 808.367188 593.019531 809.109375 "/></g><path style=" stroke:none;fill-rule:nonzero;fill:#87ceeb;fill-opacity:1;" d="M 630.460938 675.632812 C 614.691406 683.34375 594.761719 693.894531 570.167969 703.761719 C 545.726562 713.371094 515.4375 722.492188 481.964844 719.777344 C 465.484375 718.398438 448.476562 714.46875 432.621094 706.109375 C 416.878906 698.242188 402.242188 683.480469 396.5625 665.875 C 384.820312 632.523438 393.785156 589.203125 424.507812 573.375 C 398.421875 594.671875 398.0625 633.550781 410.308594 660.242188 C 422.578125 687.691406 455.515625 697.011719 483.304688 698.304688 C 540.9375 699.628906 588.761719 669.042969 620.234375 655.023438 C 659.890625 634.886719 683.648438 627.480469 696.429688 625.714844 C 709.414062 624.214844 711.300781 626.679688 712.078125 629.753906 C 713.726562 637.785156 708.929688 636.597656 630.460938 675.632812 "/></g></svg>