<svg xmlns="http://www.w3.org/2000/svg" xmlns:xlink="http://www.w3.org/1999/xlink" width="1600" zoomAndPan="magnify" viewBox="0 0 1200 809.999993" height="1080" preserveAspectRatio="xMidYMid meet" version="1.2"><g id="e3f36bee38"><path style=" stroke:none;fill-rule:nonzero;fill:#87ceeb;fill-opacity:1;" d="M 1019.679688 163.421875 C 1019.570312 162.921875 1019.46875 162.445312 1019.359375 161.949219 C 1015.171875 142.558594 1012.402344 122.964844 1011.054688 103.171875 C 1009.707031 83.378906 1009.796875 63.589844 1011.320312 43.808594 L 1015.675781 0.152344 C 1000.703125 51.28125 972.667969 83.238281 947.152344 111.949219 C 900.890625 163.992188 888.386719 215.40625 885.394531 245.898438 C 902.402344 244.847656 914.667969 242.429688 923.492188 239.539062 C 943.105469 233.121094 945.785156 224.410156 946.03125 223.402344 C 945.3125 228.300781 944.339844 233.148438 943.113281 237.945312 C 942.273438 238.886719 941.363281 239.757812 940.390625 240.558594 C 943.109375 235.117188 944.988281 229.394531 946.03125 223.402344 C 944.835938 229.410156 942.90625 235.171875 940.234375 240.683594 C 935.519531 244.582031 927.042969 249.125 911.722656 252.273438 C 902.945312 254.007812 894.085938 255.113281 885.148438 255.589844 C 885 255.597656 884.84375 255.589844 884.695312 255.597656 C 827.351562 258.679688 757.984375 187.652344 709.386719 163.355469 C 660.660156 138.988281 606.0625 170.316406 606.0625 170.316406 C 606.0625 170.316406 551.464844 138.988281 502.734375 163.355469 C 454.007812 187.71875 384.390625 259.074219 326.960938 255.59375 C 325.132812 255.480469 323.5 255.324219 321.78125 255.175781 C 292.191406 252.75 278.214844 246.003906 271.71875 240.558594 C 270.753906 239.761719 269.851562 238.894531 269.011719 237.964844 C 267.660156 236.558594 266.683594 234.929688 266.078125 233.074219 C 266.128906 233.289062 266.257812 234.019531 266.519531 235.179688 C 263.90625 230.035156 261.890625 224.667969 260.464844 219.078125 C 260.597656 219.605469 262.160156 222.8125 266.613281 226.832031 C 266.289062 224.875 266.132812 223.636719 266.074219 223.402344 C 266.128906 223.628906 266.34375 225 266.804688 227.019531 C 274.351562 233.738281 290.136719 242.617188 321.050781 245.414062 C 317.972656 214.867188 305.355469 163.714844 259.335938 111.949219 C 206.734375 52.761719 194.992188 26.355469 190.820312 0.152344 C 197.394531 44.542969 202.601562 69.144531 177.667969 174.691406 C 128.351562 383.484375 213.835938 485.417969 213.835938 485.417969 C 217.929688 403.222656 236.851562 399.925781 236.851562 399.925781 C 217.125 590.636719 315.769531 669.554688 328.921875 678.316406 C 305.902344 638.316406 310.832031 598.035156 310.832031 598.035156 C 352.753906 738.601562 515.511719 749.285156 519.625 781.34375 C 527.847656 763.535156 525.515625 740.246094 512.640625 732.027344 C 561.136719 737.234375 572.371094 769.839844 585.390625 809.84375 C 619.085938 802.433594 674.726562 763.519531 714.882812 720.382812 C 708.109375 738.796875 704.292969 760.246094 707.042969 781.347656 C 711.152344 749.289062 853.726562 738.605469 895.652344 598.039062 C 895.652344 598.039062 900.585938 638.316406 877.566406 678.320312 C 890.71875 669.554688 982.785156 590.640625 963.058594 399.933594 C 963.058594 399.933594 981.980469 403.222656 986.074219 485.421875 C 986.074219 485.421875 1071.566406 383.492188 1022.246094 174.695312 C 1021.34375 170.839844 1020.492188 167.105469 1019.679688 163.421875 Z M 848.609375 326.074219 C 834.875 328.003906 821.085938 328.566406 807.242188 327.757812 C 793.394531 326.953125 779.765625 324.792969 766.347656 321.277344 C 761.828125 320.078125 757.476562 318.765625 753.292969 317.339844 C 792.683594 369.175781 753.5625 405.207031 725.871094 408.96875 C 717.160156 410.152344 662.589844 416.582031 638.621094 367.414062 C 634.585938 373.257812 629.859375 378.480469 624.445312 383.074219 C 624.445312 383.074219 629.785156 365.8125 622.390625 355.125 C 621.683594 358.988281 620.664062 362.769531 619.328125 366.464844 C 617.996094 370.164062 616.371094 373.722656 614.445312 377.152344 C 612.523438 380.578125 610.332031 383.820312 607.871094 386.886719 C 605.410156 389.949219 602.714844 392.789062 599.78125 395.40625 C 602.660156 375.675781 585.398438 354.308594 585.398438 354.308594 C 583.753906 364.992188 585.398438 385.132812 585.398438 385.132812 C 583.53125 383.769531 581.796875 382.253906 580.191406 380.589844 C 578.585938 378.929688 577.136719 377.136719 575.839844 375.222656 C 574.546875 373.308594 573.421875 371.296875 572.476562 369.1875 C 571.53125 367.078125 570.769531 364.902344 570.199219 362.664062 C 547.582031 417.195312 489.621094 410.1875 480.628906 408.976562 C 453.546875 405.296875 415.488281 370.757812 450.679688 320.753906 C 429.5 326.335938 403.972656 329.125 373.902344 326.078125 C 315.136719 320.125 288.316406 285.632812 276.117188 258.234375 C 287.628906 277.152344 312.046875 300.910156 363.507812 307.808594 C 411.855469 314.285156 450.644531 304.148438 478.667969 291.121094 C 490.003906 285.867188 500.738281 279.585938 510.875 272.28125 C 518.003906 267.269531 524.601562 261.636719 530.671875 255.382812 C 530.671875 255.382812 524.453125 272.226562 501.847656 289.617188 C 495.933594 294.144531 489.699219 298.179688 483.148438 301.714844 C 488.65625 301.480469 494.113281 300.824219 499.519531 299.75 C 504.171875 298.894531 509.375 297.730469 514.890625 296.273438 C 552.78125 286.257812 606.054688 261.621094 606.054688 215.789062 C 606.054688 261.621094 659.328125 286.261719 697.222656 296.273438 C 704.246094 298.128906 710.753906 299.496094 716.28125 300.386719 C 720.480469 301.113281 724.707031 301.558594 728.964844 301.714844 C 722.410156 298.179688 716.171875 294.148438 710.257812 289.617188 C 687.65625 272.234375 681.433594 255.382812 681.433594 255.382812 C 687.503906 261.636719 694.101562 267.269531 701.234375 272.28125 C 708.175781 277.289062 715.417969 281.820312 722.957031 285.871094 C 733.496094 291.554688 744.460938 296.246094 755.847656 299.949219 C 780.960938 308.105469 812.0625 312.703125 848.601562 307.808594 C 901.566406 300.710938 925.878906 275.75 936.964844 256.601562 C 925.878906 283.820312 901.5625 318.976562 848.609375 326.074219 Z M 848.609375 326.074219 "/></g></svg>