<svg xmlns="http://www.w3.org/2000/svg" xmlns:xlink="http://www.w3.org/1999/xlink" width="1600" zoomAndPan="magnify" viewBox="0 0 1200 809.999993" height="1080" preserveAspectRatio="xMidYMid meet" version="1.2"><g id="ad5bf5a39d"><path style=" stroke:none;fill-rule:evenodd;fill:#87ceeb;fill-opacity:1;" d="M 363.042969 224.183594 C 348.996094 220.671875 321.082031 208.734375 320.90625 169.933594 C 320.90625 169.933594 324.945312 197.144531 351.808594 209.789062 C 351.808594 209.789062 307.386719 179.941406 329.507812 102.863281 C 329.507812 102.863281 326.699219 133.765625 334.777344 148.6875 C 334.777344 148.6875 317.570312 13.675781 516.667969 13.148438 C 516.667969 13.148438 468.5625 22.804688 440.644531 40.011719 C 508.238281 16.484375 607.964844 15.253906 677.3125 26.316406 C 677.3125 26.316406 609.015625 26.140625 580.574219 43.699219 C 580.574219 43.699219 798.984375 0.15625 815.664062 146.230469 C 815.664062 146.230469 826.898438 120.597656 823.039062 91.804688 C 823.039062 91.804688 833.746094 126.390625 821.105469 159.222656 C 878.867188 183.628906 892.386719 246.832031 877.992188 310.914062 C 855.34375 412.21875 739.113281 485.433594 778.441406 579.1875 C 715.9375 559.875 714.710938 500.882812 714.710938 500.882812 C 691.535156 532.132812 690.128906 568.652344 690.128906 568.652344 C 676.261719 517.5625 715.765625 463.488281 715.765625 463.488281 C 708.390625 469.808594 690.832031 470.859375 690.832031 470.859375 C 745.609375 428.722656 731.390625 356.386719 731.390625 356.386719 C 732.441406 390.625 713.480469 412.21875 713.480469 412.21875 C 713.480469 412.21875 741.574219 349.71875 699.613281 327.945312 C 620.078125 286.511719 574.253906 406.074219 604.628906 476.304688 C 593.390625 468.929688 587.949219 444.347656 587.949219 444.347656 C 582.679688 482.800781 592.511719 501.410156 616.566406 583.050781 C 640.445312 664.691406 562.140625 742.46875 562.140625 742.46875 C 575.484375 728.597656 578.820312 686.636719 578.820312 686.636719 C 536.332031 798.125 354.441406 809.535156 354.441406 809.535156 C 368.308594 772.316406 328.632812 709.285156 317.921875 664.164062 C 309.667969 629.402344 326.699219 587.261719 334.953125 569.882812 C 344.785156 548.988281 382.882812 558.996094 399.5625 567.949219 C 384.8125 541.964844 370.945312 535.644531 333.195312 540.035156 C 312.65625 508.082031 340.21875 480.339844 340.21875 480.339844 C 364.273438 477.882812 394.117188 481.570312 408.515625 503.339844 C 425.019531 528.449219 424.140625 567.25 460.484375 572.691406 C 437.132812 557.417969 438.539062 535.46875 438.539062 535.46875 C 481.378906 546.882812 523.164062 511.945312 528.78125 453.128906 C 540.019531 492.105469 522.8125 530.203125 522.8125 530.203125 C 547.039062 490.699219 564.773438 411.34375 550.726562 355.511719 C 543.703125 327.945312 527.550781 305.121094 497.003906 283.703125 C 504.902344 284.054688 514.558594 283.175781 514.558594 283.175781 C 502.09375 277.382812 488.75 261.582031 498.230469 237.527344 C 504.203125 251.222656 518.421875 258.421875 518.421875 258.421875 C 502.09375 236.648438 501.566406 211.542969 523.867188 206.628906 C 567.054688 201.183594 653.261719 223.65625 716.816406 175.726562 C 580.398438 217.863281 506.660156 173.269531 437.484375 189.773438 C 403.425781 198.023438 381.476562 206.453125 351.28125 180.46875 C 359.707031 197.671875 374.980469 205.75 390.957031 209.085938 C 361.113281 235.773438 350.226562 266.144531 350.226562 266.144531 C 350.402344 251.925781 355.667969 234.71875 363.042969 224.183594 "/><path style=" stroke:none;fill-rule:evenodd;fill:#87ceeb;fill-opacity:1;" d="M 352.332031 331.984375 C 352.332031 331.984375 356.019531 343.921875 373.226562 341.992188 C 390.433594 340.058594 396.753906 325.3125 417.996094 332.335938 C 439.242188 339.359375 457.324219 357.089844 481.902344 346.730469 C 481.902344 346.730469 463.292969 346.730469 446.089844 332.335938 C 428.882812 317.9375 413.957031 304.945312 393.59375 312.847656 C 373.402344 320.746094 374.804688 333.039062 352.332031 331.984375 "/><path style=" stroke:none;fill-rule:evenodd;fill:#ffffff;fill-opacity:1;" d="M 402.019531 62.660156 C 402.019531 62.660156 345.835938 84.605469 364.972656 151.5 C 364.972656 151.5 356.546875 96.019531 402.019531 62.660156 "/><path style=" stroke:none;fill-rule:evenodd;fill:#ffffff;fill-opacity:1;" d="M 375.507812 794.261719 C 375.507812 794.261719 544.054688 755.636719 562.316406 606.402344 C 562.140625 726.316406 483.660156 767.046875 375.507812 794.261719 "/></g></svg>