<svg xmlns="http://www.w3.org/2000/svg" xmlns:xlink="http://www.w3.org/1999/xlink" width="1600" zoomAndPan="magnify" viewBox="0 0 1200 809.999993" height="1080" preserveAspectRatio="xMidYMid meet" version="1.2"><g id="27f0c50064"><path style=" stroke:none;fill-rule:evenodd;fill:#87ceeb;fill-opacity:1;" d="M 615.707031 256.996094 C 626.402344 259.097656 641.707031 264.128906 645.777344 267.800781 C 673.652344 226.714844 667.949219 195.378906 651.195312 153.875 C 645.671875 140.160156 643.5625 127.136719 664.847656 126.492188 C 618.449219 117.609375 647.589844 169.5 649.125 190.488281 C 633.652344 143.121094 611.019531 126.730469 561.003906 133.1875 C 610.339844 129.175781 640.707031 166.847656 644.152344 218.761719 C 643.207031 206.527344 639.867188 195.332031 634.617188 185.585938 C 578.128906 80.730469 498.332031 224.167969 424.4375 176.679688 C 452.761719 193.386719 500.996094 172.917969 529.136719 150.644531 C 490.0625 155.339844 439.15625 135.722656 390.496094 155.210938 C 343.046875 174.210938 314.070312 212.953125 301.617188 256.765625 C 323.304688 240.234375 351.386719 232.3125 380.191406 236.753906 C 356.671875 234.097656 333.238281 242.378906 316.613281 259.226562 C 303.21875 272.796875 295.4375 290.71875 294.472656 309.445312 C 294.539062 333.191406 298.886719 356.773438 307.261719 378.09375 C 310.023438 384.929688 313.246094 391.597656 316.738281 398.125 C 317.132812 364.253906 331.761719 331.246094 358.496094 308.101562 C 325.414062 344.152344 319.089844 396.742188 341.457031 439.210938 C 343.757812 442.960938 346.011719 446.675781 348.160156 450.378906 L 348.179688 450.410156 C 360.1875 471.113281 376.929688 490.976562 374.929688 512.359375 C 411.925781 471.703125 358.605469 436.28125 379.976562 401.800781 C 409.535156 354.101562 470.652344 358.628906 468 457.238281 C 467.480469 476.566406 457.351562 507.296875 442.265625 529.4375 C 451.023438 550.976562 480.234375 583.710938 498.734375 598.792969 C 497.117188 585.6875 496.921875 572.386719 498.175781 559.152344 C 498.875 586.375 514.214844 610.8125 537.808594 623.425781 C 543.398438 626.113281 549.085938 628.539062 554.8125 630.703125 C 549.167969 617.488281 545.089844 603.613281 542.683594 589.347656 C 550.003906 614.132812 574.105469 633.378906 599.707031 640.53125 C 592.066406 632.21875 586.46875 622.085938 583.570312 610.898438 C 596.039062 643.773438 630.871094 649.433594 660.675781 638.851562 C 693.746094 627.113281 704.761719 592.867188 665.585938 521.699219 C 659.457031 510.554688 659.414062 496.878906 662.746094 482.210938 C 652.230469 483.460938 635.300781 481.082031 625.59375 478.011719 C 636.863281 470.835938 656.566406 463.710938 669.140625 460.90625 C 673.113281 449.316406 668.761719 440.664062 659.765625 434.261719 C 637.515625 440.011719 617.140625 451.335938 600.519531 467.144531 C 566.894531 423.101562 521.914062 432.796875 510.15625 414.445312 C 497.160156 394.148438 501.335938 350.867188 520.824219 324 C 533.238281 311.054688 534.296875 296.488281 523.984375 280.304688 C 505.394531 256.03125 457.761719 250.71875 381.089844 264.351562 C 448.226562 244.710938 498.402344 245.742188 531.609375 267.457031 C 550.882812 260.625 570.722656 256.894531 590.398438 256.371094 C 569.25 229.503906 537.824219 212.511719 503.542969 209.652344 C 541.859375 209.148438 579.203125 226.625 602.59375 256.386719 C 619.328125 234.820312 619.496094 205.753906 604.804688 186.097656 C 621.359375 204.238281 625.574219 231.636719 615.707031 256.996094 "/><path style=" stroke:none;fill-rule:evenodd;fill:#87ceeb;fill-opacity:1;" d="M 660.125 319.839844 C 633.222656 319.992188 607.046875 303.921875 585.265625 326.109375 C 596.855469 322.746094 605.726562 323.210938 613.457031 324.597656 L 613.457031 324.601562 C 613.8125 324.664062 614.171875 324.730469 614.511719 324.800781 L 614.539062 324.804688 L 614.546875 324.804688 C 614.886719 324.875 615.222656 324.941406 615.5625 325.007812 L 615.617188 325.019531 L 615.617188 325.023438 C 615.972656 325.09375 616.332031 325.171875 616.6875 325.242188 L 616.730469 325.253906 C 617.074219 325.328125 617.402344 325.398438 617.738281 325.472656 L 617.757812 325.476562 C 618.097656 325.550781 618.429688 325.628906 618.765625 325.703125 L 618.785156 325.707031 L 618.890625 325.730469 L 619.652344 325.910156 L 619.769531 325.9375 L 619.820312 325.945312 L 619.902344 325.960938 L 620.023438 325.996094 L 620.148438 326.027344 L 620.265625 326.054688 L 620.640625 326.136719 L 620.757812 326.167969 L 620.847656 326.1875 L 620.882812 326.199219 L 621.003906 326.226562 L 621.128906 326.257812 L 621.253906 326.28125 L 621.378906 326.316406 L 621.503906 326.339844 L 621.628906 326.375 C 618.003906 326.058594 614.914062 325.824219 612.359375 325.679688 C 611.316406 326.910156 610.753906 328.257812 610.808594 329.65625 C 610.984375 334.722656 619.101562 338.539062 628.929688 338.183594 C 638.753906 337.828125 646.566406 333.433594 646.375 328.371094 C 646.367188 327.964844 646.304688 327.566406 646.1875 327.183594 C 650.402344 325.867188 654.964844 323.570312 660.125 319.839844 "/><path style=" stroke:none;fill-rule:evenodd;fill:#87ceeb;fill-opacity:1;" d="M 365.871094 527.257812 C 368.351562 547.257812 368.644531 550.417969 372.117188 561.207031 C 387.542969 609.113281 550.214844 614.703125 599.605469 732.570312 C 580.75 700.636719 540.351562 679.214844 484.773438 662.859375 C 458.042969 655.003906 337.320312 627.59375 348.324219 598.203125 C 356.066406 566.222656 365.871094 527.257812 365.871094 527.257812 "/><path style=" stroke:none;fill-rule:evenodd;fill:#87ceeb;fill-opacity:1;" d="M 540.335938 711.875 C 532.554688 695.46875 492.519531 679.199219 466.707031 671.886719 C 438.542969 663.894531 319.671875 634.648438 334.769531 601.480469 C 326.066406 606.132812 320.972656 615.347656 321.597656 625.3125 C 324.785156 676.601562 494.117188 669.808594 540.335938 711.875 "/><path style=" stroke:none;fill-rule:evenodd;fill:#87ceeb;fill-opacity:1;" d="M 398.035156 447.273438 C 378.503906 420.550781 400.949219 384.8125 429.714844 389.085938 C 434.640625 390.617188 437.386719 395.703125 436.242188 400.738281 C 433.789062 411.496094 384.472656 404.296875 398.035156 447.273438 "/><path style=" stroke:none;fill-rule:evenodd;fill:#87ceeb;fill-opacity:1;" d="M 872.960938 234.523438 C 876.488281 232.53125 880.960938 233.769531 882.960938 237.296875 C 884.953125 240.816406 883.714844 245.296875 880.183594 247.285156 C 876.660156 249.28125 872.195312 248.042969 870.195312 244.519531 C 868.191406 240.992188 869.445312 236.519531 872.960938 234.523438 M 692.597656 84.742188 L 692.597656 84.738281 L 692.597656 84.746094 C 693.773438 86.054688 695.113281 87.316406 696.347656 88.441406 L 848.464844 238.105469 C 851.625 241.285156 854.570312 244.113281 857.9375 247.417969 C 863.730469 253.117188 870.570312 259.886719 876.785156 265.277344 C 887.578125 274.621094 888.320312 272.269531 897.640625 275.894531 C 917.941406 283.769531 941.808594 292.863281 961.734375 301.390625 C 969.699219 304.792969 976.652344 306.546875 980.582031 318.09375 C 982.171875 322.738281 981.351562 325.359375 982.121094 330.128906 C 985.613281 352.007812 1008.40625 364.761719 1028.617188 361.972656 C 1033.089844 361.359375 1036.339844 359.703125 1041.117188 359.316406 C 1055.019531 358.203125 1056.992188 367.53125 1074.375 365.582031 C 1082.0625 364.714844 1081.132812 359.023438 1078.589844 356.835938 C 1076.382812 354.9375 1070.742188 356.890625 1066.902344 356.242188 C 1058.082031 354.761719 1052.367188 348.15625 1052.082031 337.742188 C 1051.832031 328.828125 1052.222656 321.664062 1044.582031 312.90625 C 1038.472656 305.910156 1032.457031 302.71875 1024.726562 300.015625 C 1018.222656 297.738281 1010.464844 297.058594 1001.476562 298.730469 C 982.511719 302.273438 974.574219 292.207031 959.085938 280.53125 C 952.789062 275.785156 946.371094 270.664062 939.761719 265.753906 C 926.480469 255.894531 913.316406 245.371094 900.371094 235.574219 C 848.546875 196.347656 795.359375 154.640625 743.550781 115.453125 C 738.363281 111.53125 717.542969 94.925781 689.957031 76.960938 C 688.613281 79.296875 690.257812 82.121094 692.597656 84.742188 Z M 995.617188 340.855469 C 986.144531 329.554688 989.097656 310.453125 1003.277344 306.734375 C 1014.5625 303.777344 1030.453125 308.835938 1038.183594 318.21875 C 1047.648438 329.695312 1045.042969 348.601562 1030.542969 353.035156 C 1017.992188 356.878906 1004.027344 350.882812 995.617188 340.855469 Z M 995.617188 340.855469 "/><path style=" stroke:none;fill-rule:evenodd;fill:#87ceeb;fill-opacity:1;" d="M 850.113281 183.960938 C 850.605469 187.484375 850.035156 190.0625 852.980469 192.304688 C 861.445312 198.742188 883.265625 214.847656 889.496094 220.261719 C 872.765625 153.496094 853.203125 88.347656 835.867188 22.09375 C 830.953125 3.445312 830 1.3125 825.964844 0 C 832.757812 71.585938 847.617188 166.15625 850.113281 183.960938 "/><path style=" stroke:none;fill-rule:evenodd;fill:#87ceeb;fill-opacity:1;" d="M 873.515625 346.363281 C 874.078125 350.75 874.335938 353.9375 874.140625 358.253906 L 873.800781 360.578125 C 873.003906 366.257812 870.273438 371.445312 865.863281 376.335938 C 858.230469 384.808594 855.015625 397.734375 856.640625 408.933594 C 857.535156 415.125 860.535156 422.640625 865.195312 428.28125 C 883.441406 450.425781 914.085938 439.746094 917.066406 409.320312 C 921.28125 408.730469 923.457031 408.738281 921.621094 403.449219 C 919.78125 402.558594 920.074219 402.726562 917.996094 402.964844 C 916.101562 398.957031 917.996094 391.265625 908.140625 378.78125 C 905.710938 375.707031 902.433594 373.246094 899.351562 371.507812 C 895.386719 369.28125 893.640625 367.996094 890.925781 363.601562 C 885.21875 354.332031 887.363281 350.320312 888.15625 341.78125 C 888.773438 335.199219 889.816406 328.347656 890.648438 321.589844 L 891.015625 319.292969 L 895.847656 281.460938 C 893.835938 279.882812 889.28125 279.292969 886.417969 278.195312 C 882.980469 276.871094 880.613281 275.3125 877.496094 273.0625 C 871.425781 268.675781 866.570312 262.765625 861.070312 258.417969 C 860.875 260.507812 871.398438 330.0625 873.515625 346.363281 M 907.210938 393.847656 C 910.648438 404.957031 909.203125 420.875 898.757812 428.210938 C 885.945312 437.199219 871.5 427.910156 866.382812 413.625 C 862.527344 402.847656 864.925781 385.992188 875.21875 379.390625 C 887.816406 371.3125 902.90625 379.878906 907.210938 393.847656 Z M 907.210938 393.847656 "/><path style=" stroke:none;fill-rule:evenodd;fill:#87ceeb;fill-opacity:1;" d="M 578.398438 745.410156 C 384.121094 768.503906 207.910156 629.734375 184.816406 435.460938 C 161.726562 241.1875 300.496094 64.972656 494.773438 41.886719 C 550.402344 35.269531 604.554688 41.9375 654.050781 59.367188 C 655.9375 60.035156 658.007812 59.125 658.785156 57.292969 L 659.070312 56.625 C 659.492188 55.644531 659.5 54.644531 659.078125 53.664062 C 658.667969 52.675781 657.945312 51.980469 656.953125 51.601562 C 601.152344 30.214844 539.496094 21.6875 476.039062 29.230469 C 267.265625 54.046875 118.136719 243.40625 142.953125 452.183594 C 167.769531 660.960938 357.128906 810.082031 565.90625 785.273438 C 736.144531 765.035156 866.722656 635.398438 895.671875 475.039062 C 897.496094 464.921875 881.316406 464.816406 879.820312 471.367188 C 847.507812 613.351562 731.273438 727.238281 578.398438 745.410156 "/></g></svg>