<svg xmlns="http://www.w3.org/2000/svg" xmlns:xlink="http://www.w3.org/1999/xlink" width="1600" zoomAndPan="magnify" viewBox="0 0 1200 809.999993" height="1080" preserveAspectRatio="xMidYMid meet" version="1.2"><defs><clipPath id="98b04607c9"><path d="M 201.582031 555 L 206 555 L 206 559 L 201.582031 559 Z M 201.582031 555 "/></clipPath></defs><g id="1a8cf8a40b"><path style=" stroke:none;fill-rule:nonzero;fill:#68c632;fill-opacity:1;" d="M 448.34375 487.910156 C 412.316406 492.148438 380.640625 495.914062 348.949219 499.558594 C 334.0625 501.257812 319.15625 503.460938 304.203125 503.964844 C 290.777344 504.402344 279.988281 500.132812 279.164062 483.472656 C 277.835938 456.121094 281.332031 448.4375 300.386719 446.085938 C 348.851562 440.066406 397.414062 435.578125 446.363281 436.015625 C 473.199219 436.25 500.035156 435.863281 526.886719 436.316406 C 545.472656 436.636719 551.519531 448.101562 541.539062 464.242188 C 536.496094 472.394531 530.261719 479.957031 523.792969 487.070312 C 474.207031 541.402344 424.449219 595.550781 374.746094 649.746094 C 370.441406 654.4375 366.058594 659.042969 360.714844 664.808594 C 396.773438 676.964844 428.296875 695.4375 461.621094 710.0625 C 485.414062 720.503906 505.832031 717.359375 526.230469 701.976562 C 546.328125 686.816406 558.578125 666.726562 568.257812 644.183594 C 576.574219 624.816406 586.539062 622.226562 605.058594 632.652344 C 609.914062 635.390625 612.570312 638.9375 612.015625 644.167969 C 608.921875 673.011719 606.570312 702.433594 589.664062 727.175781 C 562.964844 766.3125 523.609375 777.980469 478.472656 774.316406 C 458.074219 772.652344 438.378906 767.773438 419.390625 759.65625 C 379.886719 742.792969 338.984375 729.800781 297.949219 717.257812 C 291.398438 715.257812 284.222656 715.359375 277.398438 714.117188 C 265.367188 711.929688 261.453125 704.078125 266.878906 693.136719 C 273.6875 679.433594 284.828125 669.195312 294.976562 658.152344 C 340.734375 608.34375 386.355469 558.414062 431.925781 508.453125 C 436.867188 503.039062 441.152344 497.023438 448.378906 487.925781 L 448.363281 487.925781 Z M 976.019531 427.527344 C 942.308594 373.328125 858.527344 346.144531 802.835938 371.648438 C 783.648438 380.457031 778.507812 390.527344 780.289062 411.101562 C 785.480469 471.503906 790.386719 531.953125 794.890625 592.421875 C 798.503906 641.125 801.125 689.90625 804.71875 738.640625 C 806.097656 757.183594 815.40625 763.21875 837.605469 762.027344 C 858.8125 760.867188 864.324219 756.261719 863.363281 736.105469 C 861.835938 704.484375 859.0625 672.929688 856.425781 641.390625 C 855.769531 633.710938 857.652344 630.347656 865.851562 628.414062 C 879.363281 625.253906 892.972656 621.269531 905.476562 615.335938 C 956.828125 590.992188 995.175781 556.414062 996.789062 481.941406 C 998.132812 469.234375 988.773438 447.984375 976.019531 427.492188 Z M 914.230469 454.640625 C 930.78125 470.863281 932.328125 491.492188 917.875 509.613281 C 901.863281 529.703125 880.335938 540.980469 855.871094 547.671875 C 849.316406 549.472656 847.300781 548.144531 846.730469 541.65625 C 843.890625 509.597656 840.714844 477.570312 837.804688 445.515625 C 836.429688 430.265625 848.375 432.351562 857.652344 430.550781 C 878.472656 433.730469 898.453125 439.226562 914.214844 454.660156 L 914.230469 454.660156 Z M 763.398438 495.191406 C 753.519531 459.804688 732.96875 432.753906 699.980469 416.0625 C 646.226562 388.828125 590.21875 415.1875 576.625 473.503906 C 567.902344 510.855469 565.988281 548.75 566.074219 586.890625 C 566.121094 618.3125 566.476562 618.832031 597.328125 621.757812 C 617.8125 623.707031 623.339844 619.65625 622.871094 599.652344 C 622.617188 589.816406 626.296875 587.613281 634.648438 587.429688 C 652.328125 587.042969 670.019531 586.722656 687.664062 585.511719 C 697.597656 584.824219 701.929688 587.347656 702.722656 598.238281 C 706.015625 644.789062 708.835938 691.355469 707.945312 738.054688 C 707.257812 773.625 707.390625 773.121094 742.140625 772.769531 C 755.9375 772.632812 762.527344 767.65625 764.910156 753.957031 C 771.9375 713.207031 779.144531 672.542969 775.75 638.199219 C 776.003906 585.277344 775.867188 539.703125 763.464844 495.222656 L 763.433594 495.191406 Z M 624.652344 539.535156 C 613.929688 540.257812 609.074219 536.359375 612.265625 525.851562 C 619.355469 502.550781 627.152344 479.640625 653.652344 470.644531 C 661.550781 467.957031 668.019531 469.167969 674.640625 474.09375 C 694.488281 488.886719 699.34375 510.90625 703.761719 533.148438 C 705.15625 540.15625 699.460938 539.25 695.394531 539.285156 C 683.078125 539.433594 670.742188 539.335938 658.425781 539.335938 C 647.167969 539.351562 635.859375 538.78125 624.632812 539.519531 Z M 735 86.519531 C 730.429688 74.113281 723.492188 63.421875 711.003906 57.503906 C 697.546875 51.117188 689.292969 54.898438 686.421875 69.609375 C 683.3125 85.527344 676.523438 100.1875 671.988281 115.601562 C 668.761719 126.597656 664.726562 127.269531 658.15625 117.65625 C 647.855469 102.59375 637.152344 87.816406 626.246094 73.171875 C 620.097656 64.902344 611.15625 62.933594 601.679688 65.589844 C 591.832031 68.332031 591.679688 76.550781 591.699219 85.09375 C 591.78125 109.785156 590.976562 134.480469 591.261719 159.175781 C 591.414062 172.019531 592.554688 184.914062 594.335938 197.65625 C 596.285156 211.742188 607.15625 214.734375 619.207031 215.460938 C 631.640625 216.199219 634.414062 207.507812 635.992188 198.042969 C 637.589844 188.511719 639.320312 178.945312 639.859375 169.347656 C 640.511719 157.746094 642.597656 153.980469 654.292969 161.882812 C 685.414062 182.863281 685.714844 182.425781 707.578125 152.839844 C 708.132812 152.082031 709.339844 151.8125 710.382812 151.257812 C 714.464844 154.65625 714.667969 159.664062 715.507812 164.238281 C 717.507812 175.316406 718.601562 186.59375 721.035156 197.539062 C 722.984375 206.230469 728.734375 211.960938 738.394531 210.820312 C 747.636719 209.726562 750.460938 202.984375 750.511719 194.597656 C 750.542969 187.738281 750.511719 180.878906 750.511719 172.375 C 753.550781 179.449219 755.484375 184.964844 758.207031 190.042969 C 764.523438 201.773438 784.421875 212.464844 794.605469 208.835938 C 808.820312 203.742188 807.441406 190.679688 808.0625 178.996094 C 808.300781 174.710938 808.367188 170.40625 808.148438 166.121094 C 807.8125 159.882812 809.59375 156.90625 816.667969 155.511719 C 840.597656 150.722656 840.511719 150.316406 840.378906 174.828125 C 840.359375 178.578125 840.664062 182.410156 840.058594 186.089844 C 838.914062 192.882812 835.554688 199.925781 843.285156 205.019531 C 850.527344 209.777344 857.703125 207.019531 864.808594 204.347656 C 874.625 200.664062 878.4375 192.898438 879.414062 183.132812 C 883.496094 142.855469 881.09375 102.675781 876.035156 62.71875 C 873.464844 42.226562 866.304688 37.367188 845.839844 37.347656 C 825.574219 37.347656 805.628906 41.316406 785.007812 39.449219 C 771.144531 38.191406 761.148438 46.007812 758.171875 63.121094 C 753.570312 89.632812 750.929688 116.175781 749.015625 142.886719 C 745.941406 123.539062 741.6875 104.777344 735 86.621094 L 735.035156 86.539062 Z M 817.589844 95.261719 C 832.949219 94.691406 839 98.289062 839.285156 114.949219 C 839.605469 133.640625 826.851562 128.246094 817.660156 129.925781 C 799.460938 133.222656 807.695312 118.664062 806.046875 113.957031 C 803.726562 101.550781 804.652344 95.734375 817.609375 95.261719 Z M 369.5 160.859375 C 369.449219 164.167969 370.746094 170.808594 365.738281 169.566406 C 349.523438 165.566406 336.835938 176.355469 322.183594 178.171875 C 314.855469 179.082031 307.949219 177.902344 303.53125 171.464844 C 292.121094 154.804688 304.285156 123.808594 323.527344 118.949219 C 330.199219 117.269531 336.9375 114.660156 342.734375 111.015625 C 353.371094 104.324219 356.746094 84.152344 350.328125 69.929688 C 344.429688 56.816406 333.492188 58.984375 322.6875 61.222656 C 288.976562 68.179688 253.757812 106.191406 247.757812 142.0625 C 241.222656 181.097656 255.320312 212.25 285.246094 224.234375 C 310.03125 234.136719 333.542969 229.613281 356.460938 217.644531 C 362.980469 214.25 368.359375 210.179688 377.851562 216.113281 C 395.246094 227.042969 412.402344 215.945312 413.125 195.253906 C 413.59375 181.300781 413.292969 167.3125 413.324219 153.359375 C 413.324219 149.324219 414.046875 145.390625 418.988281 145.242188 C 424.753906 145.054688 423.660156 149.863281 423.996094 153.378906 C 425.507812 169.363281 423.339844 185.570312 427.742188 201.421875 C 430.296875 210.632812 432.449219 219.8125 443.875 220.554688 C 454.863281 221.277344 460.710938 213.695312 463.066406 204.332031 C 474.003906 160.925781 472.792969 117.03125 466.074219 73.222656 C 464.730469 64.347656 457.621094 57.65625 448.125 57.117188 C 438.230469 56.5625 432.195312 63.539062 429.625 72.25 C 426.449219 82.992188 423.761719 94.019531 424.199219 105.464844 C 424.367188 109.753906 424.566406 114.578125 418.484375 115.082031 C 411.578125 115.671875 410.972656 110.476562 410.402344 105.550781 C 409.546875 98.121094 409.425781 90.554688 407.914062 83.277344 C 405.125 70.011719 395.363281 67.070312 383.414062 68.414062 C 371.199219 69.792969 369.636719 78.738281 369.769531 88.4375 C 369.921875 100.238281 371.90625 112.007812 369.570312 124.144531 C 369.570312 136.144531 369.703125 148.519531 369.46875 160.859375 L 369.46875 160.824219 Z M 482.910156 171.28125 C 483.011719 179.855469 482.640625 188.511719 483.582031 197 C 484.589844 206.261719 488.910156 213.777344 499.714844 213.558594 C 509.023438 213.390625 512.535156 206.988281 513.125 198.5625 C 513.777344 189.46875 514.214844 180.359375 514.820312 171.28125 C 515.074219 167.714844 514.433594 164.289062 519.441406 162.421875 C 540.109375 154.6875 550.445312 161.429688 551.285156 183.671875 C 551.519531 189.554688 552.007812 195.453125 552.832031 201.304688 C 553.738281 207.929688 555.535156 214.449219 564.003906 214.519531 C 573.316406 214.566406 575.835938 207.710938 575.785156 200.347656 C 575.5 167.09375 576.457031 133.726562 573.683594 100.660156 C 570.894531 67.273438 559.015625 58.851562 524.851562 59.539062 C 518.972656 59.65625 513.125 60.683594 507.226562 61.203125 C 494.773438 62.3125 488.507812 69.070312 486.003906 81.375 C 481.667969 102.691406 483.28125 124.144531 482.894531 145.558594 C 482.894531 154.152344 482.808594 162.722656 482.894531 171.332031 Z M 522.734375 104.222656 C 539.554688 103.5 546.007812 110.476562 546.410156 131.574219 C 546.699219 146.585938 533.992188 139.980469 527.304688 141.308594 C 509.578125 144.886719 517.527344 129.722656 514.234375 121.789062 C 518.347656 116.644531 507.425781 104.863281 522.703125 104.207031 L 522.71875 104.207031 Z M 522.734375 104.222656 "/><path style=" stroke:none;fill-rule:nonzero;fill:#90d26d;fill-opacity:1;" d="M 237.222656 720.773438 C 295.296875 726.539062 340.28125 760.628906 392.253906 775.609375 C 399.058594 777.574219 404.285156 781.796875 402.085938 789.679688 C 399.53125 798.808594 392.121094 798.40625 385.027344 796 C 371.820312 791.546875 358.410156 787.460938 345.792969 781.695312 C 307.277344 764.128906 269.769531 744.191406 226.417969 740.1875 C 213.613281 739.011719 208.589844 729.226562 215.210938 718.015625 C 235.425781 683.824219 256.75 650.335938 281.703125 619.285156 C 286.222656 613.671875 292.003906 610.425781 298.285156 615.585938 C 304.320312 620.5625 300.941406 626.480469 297.144531 631.253906 C 275.417969 658.640625 258.074219 688.898438 237.15625 720.738281 L 237.1875 720.773438 Z M 820.0625 3.324219 C 813.304688 4.183594 806.535156 5.945312 807.746094 14.707031 C 808.921875 23.378906 815.640625 23.347656 822.582031 22.421875 C 828.949219 21.582031 835.371094 21.042969 841.789062 20.722656 C 878.875 18.859375 891.089844 29.363281 894.753906 66.699219 C 895.445312 73.675781 896.636719 80.484375 904.71875 80.703125 C 914.214844 80.957031 914.867188 73.339844 915.15625 65.894531 C 916.632812 24.707031 891.328125 0.382812 847.183594 0.179688 C 838.160156 1.207031 829.101562 2.179688 820.078125 3.308594 L 820.0625 3.308594 Z M 952.964844 199.320312 C 932.261719 213.410156 911.980469 228.152344 891.527344 242.640625 C 885.628906 246.828125 882.167969 252.308594 887.023438 258.863281 C 891.613281 265.035156 897.527344 261.957031 902.71875 258.832031 C 924.246094 245.902344 944.628906 231.34375 964.371094 215.878906 C 967.816406 213.171875 970.792969 210.199219 970.773438 205.40625 C 970.640625 196.699219 961.953125 193.234375 952.945312 199.371094 Z M 907.390625 267.824219 C 901.140625 268.867188 894.890625 270.414062 896.148438 278.28125 C 897.425781 286.265625 904.082031 287.746094 911.019531 286.804688 C 922.699219 285.207031 934.3125 283.257812 945.957031 281.40625 C 952.410156 280.382812 957.535156 277.421875 956.980469 270.09375 C 956.375 262.074219 949.957031 261.824219 940.445312 261.824219 C 931.589844 263.4375 919.507812 265.789062 907.375 267.839844 Z M 950.777344 315.230469 C 951.535156 309.816406 949.046875 305.566406 943.601562 304.371094 C 931.136719 301.628906 918.597656 299.125 905.996094 297.007812 C 900.535156 296.101562 894.789062 296.90625 893.242188 303.5625 C 891.714844 310.121094 896.214844 313.785156 901.644531 315.179688 C 914.011719 318.375 926.546875 320.878906 936.695312 323.132812 C 945.097656 323.652344 949.855469 321.835938 950.777344 315.230469 L 950.796875 315.230469 Z M 414.433594 796.773438 C 414.25 805.363281 419.558594 809.769531 427.457031 809.027344 C 437.035156 808.121094 440.414062 800.722656 440.3125 792.015625 C 440.210938 785.394531 436.617188 781.207031 428.75 780.921875 C 421.746094 783.644531 414.636719 787.175781 414.433594 796.773438 Z M 917.085938 106.527344 C 917.910156 98.859375 914.9375 92.304688 906.433594 91.933594 C 896.890625 91.496094 894.117188 99.09375 893.542969 106.8125 C 893.023438 113.921875 896.789062 118.8125 904.550781 119.992188 C 912.902344 119.570312 916.296875 113.871094 917.085938 106.542969 Z M 917.085938 106.527344 "/><path style=" stroke:none;fill-rule:nonzero;fill:#2c7865;fill-opacity:1;" d="M 326.148438 362.433594 C 324.132812 381.449219 325.289062 400.039062 322.535156 418.414062 C 321.125 427.863281 317.511719 433.679688 307.578125 433.542969 C 298.085938 433.410156 287.632812 431.847656 286.289062 420.652344 C 280.894531 375.984375 274.292969 331.285156 277.316406 286.097656 C 277.902344 277.304688 279.449219 267.101562 289.464844 263.132812 C 299.75 259.050781 306.738281 266.394531 313.527344 272.378906 C 328.886719 285.929688 341.960938 301.511719 353.875 318.15625 C 359.015625 325.332031 364.445312 332.308594 371.871094 342.261719 C 374.257812 308.910156 371.550781 279.574219 374.425781 250.289062 C 375.382812 240.609375 374.710938 233.730469 385.414062 231.277344 C 397.582031 228.46875 407.863281 230.90625 414.453125 242.390625 C 425.660156 261.992188 426.449219 283.660156 423.914062 305.027344 C 420.230469 336.007812 424.515625 367.308594 419.089844 398.175781 C 417.175781 409.117188 415.863281 420.449219 403.160156 423.375 C 390.136719 426.367188 378.390625 424.703125 369.300781 411.910156 C 356.714844 394.207031 337.945312 381.683594 326.132812 362.453125 L 326.148438 362.453125 Z M 536.917969 251.90625 C 510.855469 219.511719 478.878906 219.695312 452.226562 251.90625 C 420.015625 290.839844 428.917969 374.050781 449.101562 403.65625 C 468.894531 432.652344 512.519531 435.160156 536.011719 409.1875 C 556.058594 387.03125 564.441406 360.402344 563.90625 327.988281 C 565.164062 300.941406 555.605469 275.152344 536.917969 251.921875 Z M 475.433594 290.03125 C 477.871094 282.667969 483.886719 278.046875 490.722656 277.339844 C 497.714844 276.617188 499.460938 284.347656 501.679688 289.460938 C 513.980469 318.003906 515.945312 346.414062 499.261719 374.1875 C 491.226562 387.550781 484.574219 387.5 475.96875 374.035156 C 468.492188 362.285156 466.527344 349.207031 467.113281 335.539062 C 466.15625 319.703125 470.542969 304.808594 475.433594 290.03125 Z M 679.398438 365.378906 C 688.890625 349.828125 696.671875 333.21875 702.535156 315.96875 C 703.929688 311.867188 703.292969 306.355469 698.636719 304.722656 C 696.082031 303.816406 693.261719 304.238281 690.605469 304.839844 C 686.40625 305.816406 652.425781 307.683594 651.703125 310.40625 C 655.621094 295.679688 665.164062 282.804688 677.128906 273.371094 C 689.09375 263.941406 703.394531 257.804688 718.113281 253.871094 C 744.730469 246.761719 773.699219 246.828125 799.257812 257.066406 C 824.816406 267.304688 846.542969 288.316406 854.796875 314.609375 C 856.945312 321.449219 860.003906 330.160156 867.164062 330.378906 C 872.035156 330.527344 876.085938 325.957031 876.925781 321.148438 C 877.765625 316.339844 876.203125 311.449219 874.386719 306.910156 C 858.996094 268.832031 822.835938 240.625 782.65625 232.234375 C 742.480469 223.847656 699.292969 234.488281 665.835938 258.308594 C 647.773438 271.167969 631.640625 289.125 628.296875 311.042969 C 614.703125 311.769531 601.140625 313.480469 587.832031 316.273438 C 586.539062 316.542969 585.109375 316.929688 584.4375 318.070312 C 582.84375 320.84375 586.875 325.804688 588.167969 328.058594 C 590.320312 331.789062 592.539062 335.488281 594.839844 339.136719 C 599.34375 346.28125 604.167969 353.222656 609.390625 359.878906 C 619.609375 372.925781 631.339844 384.828125 644.898438 394.410156 C 647.4375 396.207031 650.378906 398.007812 653.453125 397.46875 C 656.257812 396.980469 658.34375 394.660156 660.15625 392.460938 C 667.179688 383.902344 673.601562 374.839844 679.378906 365.394531 Z M 679.398438 365.378906 "/><path style=" stroke:none;fill-rule:nonzero;fill:#d7fcc3;fill-opacity:1;" d="M 210.773438 508.539062 C 210.722656 507.796875 210.636719 507.058594 210.589844 506.335938 C 211.292969 506.789062 212 507.242188 212.707031 507.714844 C 212.03125 507.964844 211.410156 508.269531 210.789062 508.554688 Z M 210.773438 508.539062 "/><g clip-rule="nonzero" clip-path="url(#98b04607c9)"><path style=" stroke:none;fill-rule:nonzero;fill:#d7fcc3;fill-opacity:1;" d="M 205.984375 555.992188 C 204.523438 556.96875 203.027344 557.945312 201.5625 558.902344 C 202.859375 557.589844 204.371094 556.648438 205.984375 555.992188 Z M 205.984375 555.992188 "/></g><path style=" stroke:none;fill-rule:nonzero;fill:#d7fcc3;fill-opacity:1;" d="M 245.238281 529.246094 C 245.371094 529.367188 245.507812 529.449219 245.625 529.566406 C 245.457031 529.71875 245.289062 529.871094 245.101562 530.003906 C 245.136719 529.753906 245.203125 529.484375 245.21875 529.246094 Z M 245.238281 529.246094 "/><path style=" stroke:none;fill-rule:nonzero;fill:#d7fcc3;fill-opacity:1;" d="M 233.425781 132.515625 C 233.121094 134.785156 231.742188 136.71875 229.222656 136.71875 C 227.15625 136.71875 224.71875 134.769531 225.023438 132.515625 C 226.535156 121 229.625 109.953125 234.414062 99.363281 C 251.4375 61.65625 288.691406 36.222656 329.8125 33.164062 C 332.078125 32.996094 334.011719 35.214844 334.011719 37.367188 C 334.011719 39.753906 332.078125 41.402344 329.8125 41.570312 C 319.207031 42.359375 308.773438 44.832031 298.875 48.714844 C 263.941406 62.449219 238.296875 95.246094 233.425781 132.5 Z M 733.910156 280.515625 C 751.234375 275.777344 769.683594 276.28125 786.738281 281.894531 C 801.945312 286.90625 815.492188 296.167969 826.042969 308.152344 C 831.957031 314.878906 836.796875 322.511719 840.511719 330.664062 C 841.453125 332.730469 844.445312 333.234375 846.257812 332.175781 C 848.375 330.933594 848.710938 328.496094 847.769531 326.425781 C 840.613281 310.742188 829.253906 297.242188 815.304688 287.15625 C 800.367188 276.363281 782.4375 270.226562 764.089844 269.050781 C 753.214844 268.34375 742.175781 269.523438 731.671875 272.414062 C 726.464844 273.84375 728.683594 281.945312 733.910156 280.515625 Z M 871.566406 708.6875 L 872.269531 735.515625 L 872.625 748.929688 C 872.726562 752.695312 873.109375 756.664062 872.289062 760.378906 C 870.960938 766.515625 865.851562 770.179688 859.988281 771.640625 C 852.257812 773.574219 844.089844 771.304688 836.597656 769.40625 C 831.355469 768.078125 829.117188 776.179688 834.363281 777.507812 C 847.367188 780.804688 862.039062 783.476562 873.296875 774.179688 C 878.523438 769.875 880.757812 763.691406 881.078125 757.066406 C 881.445312 749.636719 880.824219 742.089844 880.621094 734.660156 C 880.386719 725.984375 880.167969 717.328125 879.933594 708.652344 C 879.78125 703.253906 871.378906 703.238281 871.53125 708.652344 Z M 871.566406 708.6875 "/><path style=" stroke:none;fill-rule:nonzero;fill:#ffffff;fill-opacity:1;" d="M 844.511719 403.488281 C 829.792969 403.453125 829.808594 380.574219 844.511719 380.625 C 913.40625 380.757812 969.464844 434.957031 972.910156 503.578125 C 973.648438 518.304688 950.796875 518.238281 950.054688 503.578125 C 947.234375 447.328125 900.585938 403.605469 844.511719 403.488281 Z M 754.039062 735.71875 C 753.871094 750.445312 731.019531 750.425781 731.1875 735.71875 C 731.722656 688.867188 732.226562 641.980469 732.765625 595.113281 C 732.933594 580.386719 755.789062 580.402344 755.621094 595.113281 C 755.082031 641.964844 754.578125 688.847656 754.039062 735.71875 Z M 312.824219 480.800781 C 298.101562 481.671875 298.21875 458.8125 312.824219 457.9375 C 349.503906 455.734375 386.203125 453.53125 422.886719 451.332031 C 437.605469 450.457031 437.488281 473.320312 422.886719 474.191406 C 386.203125 476.394531 349.503906 478.597656 312.824219 480.800781 Z M 495.007812 257.367188 C 507.039062 253.417969 514.382812 268.058594 518.082031 276.886719 C 523.238281 289.191406 526.230469 302.371094 526.953125 315.683594 C 527.238281 321.0625 535.65625 321.097656 535.355469 315.683594 C 534.515625 300.152344 530.867188 285.003906 524.535156 270.800781 C 521.726562 264.496094 518.265625 258.109375 512.789062 253.71875 C 507.308594 249.332031 499.746094 246.980469 492.773438 249.25 C 487.664062 250.929688 489.851562 259.050781 495.007812 257.351562 Z M 286.441406 293.257812 L 287.917969 327.621094 C 288.019531 329.890625 289.785156 331.824219 292.121094 331.824219 C 294.320312 331.824219 296.421875 329.90625 296.320312 327.621094 L 294.84375 293.257812 C 294.742188 290.988281 292.976562 289.054688 290.640625 289.054688 C 288.441406 289.054688 286.339844 290.972656 286.441406 293.257812 Z M 320.621094 70.148438 C 301.246094 74.753906 284.222656 87.847656 274.777344 105.382812 C 272.207031 110.140625 279.46875 114.394531 282.039062 109.617188 C 290.507812 93.882812 305.480469 82.386719 322.855469 78.25 C 328.113281 77.007812 325.878906 68.886719 320.621094 70.148438 Z M 450.746094 83.308594 C 450.816406 102.492188 450.882812 121.671875 450.933594 140.835938 C 450.949219 146.25 459.351562 146.25 459.335938 140.835938 C 459.265625 121.65625 459.199219 102.472656 459.148438 83.308594 C 459.132812 77.898438 450.730469 77.898438 450.746094 83.308594 Z M 825.992188 64.332031 C 833.050781 62.816406 842.125 60.867188 847.957031 65.625 C 854.527344 71.003906 854.207031 81.074219 853.972656 89.144531 C 853.820312 94.554688 862.222656 94.554688 862.375 89.144531 C 862.675781 78.503906 862.207031 66.195312 853.0625 59.019531 C 844.644531 52.429688 833.488281 54.125 823.773438 56.210938 C 821.558594 56.683594 820.261719 59.289062 820.835938 61.390625 C 821.472656 63.691406 823.773438 64.800781 826.011719 64.332031 Z M 825.992188 64.332031 "/></g></svg>